<svg width="133" height="18" viewBox="0 0 133 18" fill="none" xmlns="http://www.w3.org/2000/svg">
<path id="Line" fill-rule="evenodd" clip-rule="evenodd" d="M100.213 0.531401C81.5254 0.730779 76.1822 0.860479 65.8135 1.36677C55.0682 1.89145 47.3783 2.41739 35.1769 3.46214C32.3483 3.70433 29.3197 3.93418 25.7691 4.17604C12.7263 5.06447 10.1883 5.3012 5.97189 6.02232C3.88279 6.37969 2.07609 6.62701 1.06349 6.69442C0.163204 6.75427 0 6.79196 0 6.93997C0 7.07076 1.43988 7.18535 2.22743 7.11718C2.50967 7.09284 3.27431 7.03315 3.92672 6.98471C4.57913 6.93619 6.01484 6.80598 7.11718 6.69534C9.71299 6.43468 10.9593 6.35249 15.4206 6.14774C22.9204 5.80355 28.5859 5.47279 35.545 4.97288C38.1096 4.78861 41.5149 4.54399 43.1121 4.42923C55.2264 3.55876 70.024 2.78257 79.0662 2.5434C90.039 2.25302 124.103 1.99631 123.528 2.20819C123.3 2.29223 119.402 2.91722 117.065 3.24446C114.919 3.54508 111.333 3.97867 106.921 4.47095C104.829 4.70449 101.958 5.0277 100.54 5.18922C95.216 5.79608 93.4623 5.98429 90.4373 6.27383C76.5014 7.60753 67.296 8.76971 54.4833 10.8129C46.8675 12.0273 40.6252 13.4214 33.659 15.4638C29.6984 16.625 29.3126 16.8312 29.7024 17.5788C29.9561 18.0652 31.9544 18.1282 35.985 17.7769C43.351 17.135 50.2729 16.6371 56.9784 16.2668C61.1844 16.0346 61.7415 15.9957 66.018 15.6352C67.6153 15.5006 70.3763 15.3039 72.1535 15.1981L75.3849 15.0058L71.09 14.93C64.5819 14.815 57.6005 14.822 55.3013 14.9457C47.6894 15.3554 43.5491 15.6707 36.7864 16.3557C35.1745 16.5189 33.8146 16.6385 33.7644 16.6214C33.2801 16.4556 44.1201 13.9518 49.2913 13.0349C60.9648 10.965 72.986 9.42057 91.4599 7.61718C93.1471 7.45247 96.5339 7.09217 98.9861 6.81656C101.438 6.54087 105.304 6.10686 107.576 5.85191C116.321 4.8708 118.927 4.50537 127.332 3.08118C132.715 2.16899 132.744 2.16118 132.891 1.56128C133.052 0.901699 132.621 0.602424 131.385 0.51688C130.212 0.435534 108.237 0.445773 100.213 0.531401ZM75.7335 14.9392C75.8353 14.9593 75.9825 14.9585 76.0607 14.9375C76.139 14.9165 76.0557 14.9001 75.8757 14.901C75.6957 14.9019 75.6318 14.9191 75.7335 14.9392Z" fill="#047FFA"/>
</svg>
