<svg width="24" height="24" viewBox="0 0 24 24" fill="none" xmlns="http://www.w3.org/2000/svg">
<g id="simple-icons:threads">
<path id="Vector" d="M16.3892 11.2692C16.3025 11.228 16.215 11.1885 16.1267 11.1508C15.9725 8.30583 14.4183 6.6775 11.8083 6.66083H11.7733C10.2117 6.66083 8.91417 7.3275 8.115 8.54L9.55 9.52417C10.1467 8.61833 11.0833 8.425 11.7742 8.425H11.7975C12.6567 8.43083 13.3058 8.68083 13.725 9.16833C14.0308 9.5225 14.235 10.0133 14.3358 10.6317C13.5207 10.4993 12.6933 10.4593 11.8692 10.5125C9.38834 10.6558 7.7925 12.1025 7.9 14.1133C7.95417 15.1333 8.4625 16.0108 9.33083 16.5842C10.0642 17.0692 11.01 17.3058 11.9933 17.2525C13.2908 17.1808 14.3083 16.6858 15.0183 15.7808C15.5583 15.0933 15.8992 14.2025 16.05 13.08C16.6683 13.4533 17.1267 13.9442 17.38 14.5342C17.8108 15.5383 17.8358 17.1875 16.49 18.5317C15.3108 19.71 13.8933 20.2192 11.7517 20.235C9.37583 20.2183 7.57833 19.4558 6.41 17.9708C5.31583 16.5792 4.75083 14.5708 4.73 12C4.75083 9.42917 5.31583 7.42 6.41 6.02917C7.57833 4.54417 9.375 3.7825 11.7517 3.765C14.1442 3.78167 15.9725 4.54833 17.1858 6.04C17.7808 6.7725 18.2292 7.6925 18.525 8.765L20.2067 8.31667C19.8483 6.99583 19.2842 5.85833 18.5175 4.91417C16.9617 3 14.6867 2.02 11.7575 2H11.7458C8.82 2.02 6.5725 3.00417 5.06167 4.925C3.71667 6.63333 3.02333 9.0125 3 11.9933V12.0067C3.02333 14.9883 3.71667 17.3658 5.06083 19.075C6.57167 20.9958 8.82083 21.98 11.7458 22H11.7575C14.3575 21.9817 16.19 21.3008 17.6992 19.7925C19.675 17.8192 19.6158 15.3458 18.9642 13.8275C18.4975 12.7383 17.6067 11.8542 16.3892 11.2692ZM11.9 15.49C10.8125 15.5517 9.68333 15.0633 9.62667 14.0183C9.585 13.2433 10.1783 12.3775 11.9667 12.275C12.1717 12.2625 12.3725 12.2575 12.57 12.2575C13.22 12.2575 13.8267 12.32 14.3792 12.4408C14.1733 15.0142 12.965 15.4317 11.9 15.49Z" fill="white"/>
</g>
</svg>
